<svg width="20" height="20" viewBox="0 0 20 20" fill="none" xmlns="http://www.w3.org/2000/svg">
<g clip-path="url(#clip0_4_383)">
<path d="M19.2298 9.99959C19.2298 9.21298 19.1645 8.63896 19.0232 8.04369H9.83121V11.5941H15.2267C15.1179 12.4764 14.5305 13.8052 13.2251 14.698L13.2068 14.8169L16.1132 17.017L16.3145 17.0367C18.1637 15.3678 19.2298 12.9122 19.2298 9.99959Z" fill="#4285F4"/>
<path d="M9.83118 19.3541C12.4745 19.3541 14.6936 18.5037 16.3145 17.0368L13.2251 14.6981C12.3984 15.2615 11.2888 15.6548 9.83118 15.6548C7.24222 15.6548 5.04487 13.986 4.26158 11.6793L4.14676 11.6888L1.12473 13.9742L1.08521 14.0816C2.69514 17.2068 6.00207 19.3541 9.83118 19.3541Z" fill="#34A853"/>
<path d="M4.26172 11.6793C4.05504 11.084 3.93543 10.4461 3.93543 9.7871C3.93543 9.128 4.05504 8.49023 4.25084 7.89495L4.24537 7.76817L1.18546 5.446L1.08534 5.49253C0.421812 6.78941 0.0410767 8.24575 0.0410767 9.7871C0.0410767 11.3285 0.421812 12.7847 1.08534 14.0816L4.26172 11.6793Z" fill="#FBBC05"/>
<path d="M9.83121 3.91923C11.6696 3.91923 12.9096 4.69521 13.6167 5.34369L16.3798 2.70743C14.6828 1.16608 12.4745 0.220001 9.83121 0.220001C6.0021 0.220001 2.69517 2.36725 1.08524 5.49245L4.25073 7.89487C5.0449 5.58816 7.24225 3.91923 9.83121 3.91923Z" fill="#EB4335"/>
</g>
<defs>
<clipPath id="clip0_4_383">
<rect width="19.2" height="19.2" fill="white" transform="translate(0.0400085 0.220001)"/>
</clipPath>
</defs>
</svg>
